<?xml version="1.0" encoding="UTF-8"?>
<svg id="b" data-name="Layer 2" xmlns="http://www.w3.org/2000/svg" viewBox="0 0 285.63 238.33">
  <defs>
    <style>
      .d {
        fill: currentColor;
      }
    </style>
  </defs>
  <g id="c" data-name="Layer 1">
    <path class="d" d="M279.58,58.31L59.34.27c-4.34-1.14-8.78,1.45-9.92,5.78l-24.83,94.22c-.55,2.08-.25,4.3.84,6.16,1.08,1.86,2.86,3.21,4.95,3.76l65.76,17.33-3.08,11.7c-1.14,4.34,1.45,8.78,5.78,9.92l2.07.55-6.47,20.42-60.53,12.58c-7.89-9.72-20.8-14.81-33.9-12.08l14.07,67.72c12.8-2.66,22.46-12.08,26.04-23.76l70.24-14.6c5.75-1.19,10.4-5.4,12.18-11l9.82-31,2.99.79c4.34,1.14,8.78-1.45,9.92-5.78l3.08-11.7,49.13,12.95c2.83.75,5.85-.09,7.89-2.19l10.56-10.86,24.21,6.38c1.23.32,2.5.35,3.72.1.85-.18,1.67-.49,2.44-.94,1.86-1.08,3.21-2.86,3.76-4.94l13.1-49.71,20.1-20.17c2.05-2.06,2.85-5.05,2.09-7.86-.76-2.8-2.96-4.99-5.77-5.73Z"/>
  </g>
</svg>