<?xml version="1.0" encoding="UTF-8"?>
<svg id="b" data-name="Layer 2" xmlns="http://www.w3.org/2000/svg" viewBox="0 0 255 119.1">
  <defs>
    <style>
      .d {
        fill: currentColor;
      }
    </style>
  </defs>
  <g id="c" data-name="Layer 1">
    <path class="d" d="m0,105.37v-.25c.24-.34.07-.73.12-1.09,0-.44-.01-.89.01-1.33.33-3.07,1.78-5.73,3.14-8.41,3.71-7.34,7.45-14.66,10.57-22.28,4.11-10.04,1.84-21.1-2.07-30.81C8.61,33.34-.35,24.22.13,15.59c.16-2.9,1.75-4.74,4.42-5.67,13.37-4.62,34.19,13.24,44.02,20.17,3.08,2.17,6.12,4.39,9.46,6.17,1.46.78,1.94.79,3.25-.27,4.25-3.42,8.26-7.14,12.76-10.27C103.75,5.11,141.98-5.48,178.15,2.86c9.32,2.15,18.35,5.14,27.18,8.79,5.4,2.23,10.21,5.48,15,8.74,11.91,8.09,24.77,18.01,31.84,30.8,1.77,3.2,3.18,6.79,2.74,10.42-.41,3.42-2.42,6.43-4.48,9.19-41.34,55.61-120.89,63.55-175.44,21.99-3.16-2.4-6.23-4.92-9.36-7.36-1.04-.81-2.17-1.51-3.33-2.17-1.42-.8-2.7-.69-4.08.19-3.95,2.51-7.77,5.21-11.68,7.77-7.9,5.17-15.96,10.09-24.52,14.11-4.44,2.08-9,3.81-13.95,4.27-2.86.27-6.59-.68-8.09-4.24Z"/>
  </g>
</svg>