<?xml version="1.0" encoding="UTF-8"?>
<svg id="b" data-name="Layer 2" xmlns="http://www.w3.org/2000/svg" viewBox="0 0 858.94 314.98">
  <defs>
    <style>
      .d {
        fill: currentColor;
      }
    </style>
  </defs>
  <g id="c" data-name="Layer 1">
    <g>
      <path class="d" d="M170.01,145.72c9.64,0,16.5,1.3,20.21,1.3,3.89,0,6.49-3.71,6.49-7.79,0-2.04-.37-3.71-1.3-5.19-1.11-1.85-3.34-5.19-3.34-7.42,0-.74.19-1.85.37-2.97.74-4.64,6.12-5.56,10.57-5.56h21.13c5.38,0,12.61,0,12.61,8.16,0,2.97-.93,4.26-2.78,6.86-1.48,2.04-2.04,3.52-2.04,5.56,0,.93.37,8.34,8.16,8.34,4.26,0,9.08-1.3,25.58-1.3s25.4,1.3,30.96,1.3,7.23-4.08,7.23-7.6c0-1.85-.19-3.34-2.78-7.04-3.89-5.38-4.45-8.34-5.75-13.53-8.53-33.93-18.91-72.3-33.19-104.75-5.93-13.53-9.46-14.09-12.79-14.09-4.26,0-12.61,1.3-25.96,1.3-20.58,0-26.14-1.3-29.66-1.3-1.67,0-3.15.37-4.26.93-11.68,5.75-34.48,79.16-41.53,108.83-.23.96-.44,1.87-.64,2.73-1.01,4.28-6.93,4.75-8.58.68-.02-.04-.03-.07-.04-.09-2.6-6.86-2.42-8.52-11.5-18.34-3.89-4.26-4.26-4.64-4.26-5.56,0-.74,3.52-3.71,4.63-4.64,7.42-6.12,14.83-16.13,14.83-33.56,0-22.62-13.53-39.86-32.63-46.16C98.07.93,80.09,0,67.3,0c-11.31,0-22.62,1.3-33.93,1.3S13.9,0,8.34,0C5.56,0,0,.74,0,7.79c0,2.78.56,3.52,3.34,7.97,2.04,3.34,2.41,4.08,2.41,16.5v82.5c0,11.31-.37,13.35-2.41,16.69-2.78,4.45-3.34,5.19-3.34,7.79,0,2.04.93,7.79,7.79,7.79,7.6,0,15.94-1.3,25.4-1.3,12.42,0,22.99,1.3,25.96,1.3,6.3,0,7.42-5.19,7.42-7.6,0-2.78-.37-3.52-3.15-7.97-2.04-3.34-2.04-4.45-2.41-12.98v-13.91c0-1.85.37-4.08,3.34-4.08,1.85,0,4.45,1.85,7.04,4.63,6.86,7.42,14.46,21.32,14.46,26.51,0,1.67-.74,6.49-.74,8.16,0,5.93,4.45,7.23,6.86,7.23,3.34,0,7.79-1.3,21.32-1.3,8.9,0,22.43,1.3,26.7,1.3.93,0,1.84-.04,2.71-.12.48.07.99.12,1.56.12,4.26,0,12.05-1.3,25.77-1.3ZM208.94,50.24c2.22-5.38,3.71-9.08,6.3-9.08,1.3,0,2.78.74,5.01,6.49,5.38,14.46,7.23,23.36,7.23,27.25,0,4.82-4.08,5.38-7.42,5.38h-9.83c-3.89,0-8.53,0-8.53-5.19,0-4.26,3.52-15.76,7.23-24.84ZM68.78,70.08c-3.71,0-7.79,0-7.79-7.04v-16.13c0-5.56,2.04-6.49,9.27-6.49,3.15,0,17.43,0,17.43,15.02,0,11.31-9.08,14.65-18.91,14.65Z"/>
      <path class="d" d="M290.89,53.76c5.01,0,7.6-6.12,15.94-6.12,7.23,0,7.23,3.71,7.23,8.9v58.21c0,11.31-.37,13.35-2.41,16.69-2.78,4.45-3.34,5.19-3.34,7.79,0,2.22.93,7.79,7.79,7.79,4.45,0,9.27-1.3,27.99-1.3s22.43,1.3,26.51,1.3c6.49,0,7.6-5.38,7.6-7.6,0-2.78-.56-3.52-3.34-7.97-2.04-3.34-2.04-3.71-2.41-16.69v-58.21c0-5.19.37-7.79,5.75-7.79,8.9,0,13.72,5.56,18.17,5.56,3.71,0,6.86-2.78,6.86-7.04,0-1.3-1.67-9.46-1.85-9.83-1.67-8.16-2.6-16.13-3.15-21.14-1.48-12.24-1.85-16.31-10.57-16.31s-13.16,1.48-42.08,1.48c-23.36,0-38.01-1.48-45.05-1.48s-9.64,2.97-10.38,9.83c-1.3,11.49-2.6,21.32-5.75,31.7-.19.56-1.11,3.52-1.11,5.38,0,3.15,3.15,6.86,7.6,6.86Z"/>
      <path class="d" d="M855.61,132.19c-2.97-3.15-3.52-4.08-4.82-10.38-1.67-7.79-9.46-30.96-21.69-44.12-5.38-5.75-6.12-6.86-6.12-8.9,0-.93.19-1.85,6.12-8.53,5.93-6.86,13.35-19.47,17.24-30.78,3.71-10.94,4.26-12.24,6.49-15.02,1.85-2.41,2.97-3.52,2.97-6.49,0-4.64-3.34-7.97-8.53-7.97-7.42,0-15.02,1.48-22.43,1.48-9.64,0-20.76-1.48-29.11-1.48-5.56,0-8.16,3.71-8.16,7.6,0,.37,0,2.04.56,3.71,1.3,3.89,1.67,4.26,1.67,5.93,0,5.93-5.38,18.72-11.68,25.95-3.34,3.89-6.49,6.49-9.27,6.49-3.34,0-3.34-3.15-3.34-8.9v-8.53c0-10.94.19-13.16,2.41-16.5,2.97-4.45,3.15-5.19,3.15-7.97,0-1.67-.74-7.79-7.6-7.79-6.12,0-11.68,1.3-25.96,1.3-7.97,0-17.98-1.3-24.1-1.3-2.17,0-5.32.53-7.06,3.05-1.09-1.69-3.01-3.05-6.29-3.05-5.01,0-13.53,1.3-20.76,1.3-4.82,0-14.65-1.3-20.39-1.3-6.86,0-8.16,4.45-8.16,7.79,0,2.78.56,3.71,3.15,7.97,1.85,2.78,2.41,3.71,2.41,16.5v52.28c0,1.11.56,7.23.56,8.53,0,7.23-6.12,8.9-12.24,8.9-6.67,0-10.94-3.71-10.94-10.57,0-1.3.37-7.23.37-8.53v-50.61c0-12.79.74-13.72,2.41-16.5,2.97-4.63,3.34-5.19,3.34-7.97,0-2.22-.93-7.79-7.6-7.79s-13.35,1.3-29.11,1.3c-13.53,0-20.21-1.3-26.51-1.3-3.15,0-8.34,1.11-8.34,7.6v.19c0,2.78.93,4.26,2.04,5.93,2.22,3.15,3.15,4.45,3.34,9.08.18,3.97.31,8.08.39,11.99-.07-.22-.98-3.2-1.05-3.43-3.52-11.31-3.05-11.71-5.27-24.31-.56-3.89-2.78-7.04-8.53-7.04-7.23,0-21.69,1.3-43.75,1.3-46.16-.19-50.61-1.3-54.88-1.3-4.63,0-8.34,2.22-8.34,7.79,0,2.78.56,3.52,3.34,7.97,2.04,3.34,2.41,3.52,2.41,16.5v82.5c0,11.31-.37,13.35-2.41,16.69-2.78,4.45-3.34,5.19-3.34,7.97s1.67,7.6,7.42,7.6c5.01,0,10.57-1.3,27.44-1.3,12.98,0,22.62,1.3,26.33,1.3,5.93,0,7.23-5.01,7.23-7.6,0-2.78-.37-3.52-3.15-7.97-1.3-2.04-2.41-4.45-2.41-10.75v-3.34c0-6.3,3.89-7.42,9.64-7.42h11.12c6.49,0,11.49.93,14.46,2.23,5.19,2.41,5.75,2.6,7.97,2.6,6.67,0,6.67-6.12,6.67-7.6,0-4.63-.56-10.2-.56-22.25,0-7.6.56-12.42.56-17.43,0-4.26-2.04-6.49-6.12-6.49-1.67,0-3.34.37-7.79,2.04-5.56,2.04-9.27,3.15-15.2,3.15h-13.9c-7.42,0-9.27-.74-9.27-7.23v-5.38c0-6.67,5.01-6.86,7.79-6.86h10.57c29.29,0,32.44,5.56,38.93,5.56.87,0,1.68-.15,2.4-.41.91-.33,1.87.35,1.87,1.32,0,0,0,.01,0,.02,0,10.57,0,19.1-.37,26.7-.19,2.97-.74,12.61-.74,15.2,0,14.28,4.45,30.03,15.76,39.49,13.9,11.68,34.3,15.2,51.91,15.2,15.76,0,31.52-2.78,44.49-12.05,14.09-10.01,18.72-27.25,18.72-43.75,0-4.63-1.3-30.4-1.48-33.19-.37-5.01-.37-13.35-.37-21.14v-11.87c0-7.23.56-9.27,2.41-12.05.88-1.32,1.51-2.31,1.97-3.12.48.82,1.1,1.81,1.93,3.12,2.04,3.34,2.41,3.34,2.41,16.5v82.5c0,11.31-.37,13.35-2.41,16.69-2.78,4.45-3.34,5.19-3.34,7.79,0,2.04.74,7.79,7.79,7.79,5.56,0,10.94-1.3,25.21-1.3,12.98,0,22.06,1.3,25.4,1.3,6.49,0,7.6-5.38,7.6-7.6,0-2.78-.37-3.52-3.15-7.97-2.22-3.52-2.41-5.38-2.41-12.24v-15.57c0-5.93.37-8.71,4.08-8.71s6.86,2.97,12.61,11.68c6.86,10.57,8.71,17.24,8.71,22.8,0,4.82-1.85,5.93-1.85,9.83,0,3.34,1.3,7.79,7.6,7.79,3.52,0,12.61-1.3,26.7-1.3,17.8,0,24.66,1.3,28.92,1.3,4.63,0,6.67-3.71,6.67-7.23,0-3.34-.74-5.01-3.34-7.6Z"/>
      <path class="d" d="M552.39,183.54c2.78-4.45,3.34-5.38,3.34-8.53,0-4.45-3.34-7.04-7.42-7.04-5.19,0-13.35,1.3-20.21,1.3-9.08,0-17.61-1.3-21.32-1.3-4.08,0-7.05,2.97-7.05,6.86,0,3.34.74,4.63,3.34,8.71,1.48,2.41,2.22,3.71,2.22,16.69v21.69c0,.93.56,5.93.56,7.05,0,1.48-.74,2.41-2.04,2.41-1.11,0-2.41-.37-5.19-5.01l-30.03-50.06c-1.85-2.97-4.82-8.34-9.46-8.34-2.97,0-10.57,1.3-20.39,1.3s-22.06-1.3-29.85-1.3c-2.22,0-7.23,0-7.23,6.86,0,3.34.74,4.45,3.34,8.71,2.04,3.34,2.41,4.45,2.41,16.69v82.5c0,8.49,0,12.45-1.97,16.11-2.96-4.47-3.54-7.34-4.71-12.03-8.53-33.93-18.91-72.3-33.19-104.75-5.93-13.53-9.46-14.09-12.79-14.09-4.26,0-12.61,1.3-25.96,1.3-20.58,0-26.14-1.3-29.66-1.3-1.67,0-3.15.37-4.26.93-11.68,5.75-34.48,79.16-41.53,108.83-2.61,11.05-3.57,15.49-5.18,18.27.72-3.42,1.48-6.44,2.03-8.44,1.3-4.82,4.63-14.65,4.63-17.43s-2.22-6.49-7.04-6.49c-7.42,0-5.93,5.38-20.02,5.38-9.27,0-9.27-1.48-9.27-11.87v-57.66c0-10.2.37-12.42,2.41-15.76,2.78-4.45,3.34-5.56,3.34-7.97,0-2.78-1.48-7.79-7.6-7.79-5.56,0-16.5,1.3-27.62,1.3s-20.39-1.3-26.33-1.3c-3.34,0-8.34,1.11-8.34,7.6v.19c0,2.41.56,3.52,3.34,7.97,2.04,3.34,2.41,3.52,2.41,16.5v82.5c0,11.31-.37,13.35-2.41,16.69-2.78,4.45-3.34,5.19-3.34,7.79,0,2.04.74,7.79,7.79,7.79,5.38,0,9.83-1.3,28.74-1.3,39.12,0,43.01,1.3,46.72,1.3s5.25-.94,6.32-2.22c1.15,1.26,2.94,2.22,5.73,2.22,4.26,0,12.05-1.3,25.77-1.3,9.64,0,16.5,1.3,20.21,1.3,3.89,0,6.49-3.71,6.49-7.79,0-2.04-.37-3.71-1.3-5.19-1.11-1.85-3.34-5.19-3.34-7.42,0-.74.19-1.85.37-2.97.74-4.64,6.12-5.56,10.57-5.56h21.13c5.38,0,12.61,0,12.61,8.16,0,2.97-.93,4.26-2.78,6.86-1.48,2.04-2.04,3.52-2.04,5.56,0,.93.37,8.34,8.16,8.34,4.26,0,9.08-1.3,25.58-1.3s25.4,1.3,30.96,1.3c1.44,0,2.61-.25,3.55-.69,1.01.45,2.19.69,3.49.69,4.45,0,12.24-1.3,17.61-1.3,7.6,0,18.17,1.3,22.43,1.3,6.12,0,7.97-4.08,7.97-6.67v-.19c0-3.34-.93-4.63-3.34-8.53-1.67-2.78-2.41-4.08-2.41-16.87v-16.87c0-7.79-.19-9.46-.19-11.49s1.11-2.41,2.04-2.41c1.48,0,2.41,0,5.38,5.01l28.92,48.94c5.38,9.08,8.53,9.08,10.57,9.08,3.89,0,9.83-1.3,25.03-1.3,8.34,0,16.5,1.3,24.66,1.3,6.49,0,7.97-4.26,7.97-6.86,0-3.34-.74-4.45-3.34-8.53-2.04-3.34-2.22-4.45-2.22-16.87v-82.5c0-9.27,0-12.98,2.22-16.69ZM325.46,248.24h-9.83c-3.89,0-8.53,0-8.53-5.19,0-4.26,3.52-15.76,7.23-24.84,2.22-5.38,3.71-9.08,6.3-9.08,1.3,0,2.78.74,5.01,6.49,5.38,14.46,7.23,23.36,7.23,27.25,0,4.82-4.08,5.38-7.42,5.38Z"/>
      <path class="d" d="M678.09,185.58c-14.28-12.24-34.67-17.61-57.84-17.61-10.57,0-21.13,1.3-31.7,1.3-8.16,0-16.13-1.3-24.29-1.3-6.3,0-8.16,3.89-8.16,7.79,0,2.6.56,3.71,3.34,7.97q2.04,3.34,2.41,16.5v82.5c0,11.31-.37,13.35-2.41,16.69-2.78,4.45-3.34,5.38-3.34,7.79,0,1.85.74,7.79,7.6,7.79,2.97,0,20.21-1.3,24.1-1.3,11.68,0,24.66,1.3,34.85,1.3,33.93,0,77.87-15.94,77.87-74.53v-.19c0-18.17-6.12-40.79-22.43-54.69ZM625.06,266.23c-7.97,0-7.97-1.85-7.97-6.86v-36.71c0-7.23,1.3-8.53,7.6-8.53,15.39,0,19.84,12.61,19.84,26.14,0,7.23-1.85,25.95-19.47,25.95Z"/>
    </g>
  </g>
</svg>