<?xml version="1.0" encoding="UTF-8"?>
<svg id="b" data-name="Layer 2" xmlns="http://www.w3.org/2000/svg" viewBox="0 0 263.65 260.92">
  <defs>
    <style>
      .d {
        fill: currentColor;
      }
    </style>
  </defs>
  <g id="c" data-name="Layer 1">
    <path class="d" d="m159.84,10.68h0c8.04,7.17,18.52,10.98,29.28,10.66h0c21.38-.64,39.84,14.85,42.93,36.02h0c1.55,10.66,7.13,20.31,15.58,26.98h0c16.79,13.25,20.98,36.99,9.73,55.18h0c-5.66,9.16-7.6,20.14-5.41,30.69h0c4.34,20.94-7.71,41.82-28.02,48.53h0c-10.23,3.38-18.77,10.55-23.87,20.03h0c-10.13,18.84-32.78,27.08-52.66,19.17h0c-10-3.98-21.16-3.98-31.16,0h0c-19.87,7.92-42.52-.33-52.66-19.17h0c-5.1-9.48-13.64-16.65-23.87-20.03h0c-20.31-6.71-32.36-27.58-28.02-48.53h0c2.19-10.54.25-21.53-5.41-30.69h0c-11.25-18.2-7.06-41.93,9.73-55.18h0c8.45-6.67,14.03-16.33,15.58-26.98h0c3.08-21.17,21.54-36.66,42.93-36.02h0c10.76.32,21.24-3.49,29.28-10.66h0c15.97-14.23,40.07-14.23,56.04,0Z"/>
  </g>
</svg>