<?xml version="1.0" encoding="UTF-8"?>
<svg id="b" data-name="Layer 2" xmlns="http://www.w3.org/2000/svg" viewBox="0 0 218.3 106.16">
  <defs>
    <style>
      .d {
        fill: var(--main-color);
      }

      .d, .e {
        stroke: var(--alt-color);
        stroke-miterlimit: 10;
        stroke-width: .5px;
      }

      .e {
        fill: none;
      }
    </style>
  </defs>
  <g id="c" data-name="Layer 1">
    <g>
      <polygon class="d" points="161.3 60.58 162.13 57.83 159.36 56.87 158.26 60.73 161.3 60.58"/>
      <polygon class="d" points="164.55 62.08 167.01 57.98 164.1 56.99 163.2 61.49 164.55 62.08"/>
      <polygon class="e" points="10.1 25.05 49.62 35.9 105.42 58.12 113.55 60.96 124.28 57.86 153.99 57.09 170.78 57.86 189.89 47.53 218.05 36.94 218.05 105.91 .28 105.91 10.1 25.05"/>
      <polygon class="d" points="158.65 66.69 154.04 63.09 156.85 61.96 157.53 62.98 157.75 59.71 161.91 60.73 159.89 67.92 158.65 66.69"/>
      <polyline class="d" points="164.16 64.44 165.29 61.74 162.93 60.73 161.91 67.14 163.94 66.46 166.29 64.49 166.29 62.64 164.59 63.41"/>
      <polyline class="d" points="160.51 49.61 159.91 49.61 159.09 45.18 159.09 42.61 160.78 39.44 165.1 39.17 164.53 37.59 163.3 35.62 165.76 31.57 168.98 31.96 169.58 35.45 168.22 38.19 168.33 39.17 171.99 39.99 172.75 43.32 172.48 45.73 170.84 45.95"/>
      <polyline class="d" points="170.73 44.09 170.73 46.93 170.13 52.07 169.37 57.48 168.16 58.52 166.29 59.07 163.46 58.08 163.46 56.72 163.46 59.07 161.91 59.07 158.54 57.64 158.54 54.04 160.07 51.14 161.6 43.82"/>
      <polyline class="e" points="165.76 31.57 160.2 .57 143.67 20.42"/>
      <polyline class="d" points="160.07 51.14 165.1 51.44 170.3 50.6"/>
    </g>
  </g>
</svg>