<?xml version="1.0" encoding="UTF-8"?>
<svg id="b" data-name="Layer 2" xmlns="http://www.w3.org/2000/svg" viewBox="0 0 154.13 136.95">
  <defs>
    <style>
      .d {
        fill: var(--main-color);
        stroke: var(--alt-color);
        stroke-miterlimit: 10;
        stroke-width: .5px;
      }
    </style>
  </defs>
  <g id="c" data-name="Layer 1">
    <g>
      <polygon class="d" points="50.61 124.71 32.68 136.67 .58 123.14 27.33 108.66 47.15 108.66 50.61 124.71"/>
      <polygon class="d" points="7.81 103 3.09 94.19 9.39 89.78 9.39 79.71 15.37 75.3 15.37 58.94 28.27 58.94 31.73 69.95 21.98 76.56 25.59 84.43 17.41 89.46 25.59 97.96 19.46 99.85 25.59 104.57 25.59 113.07 17.41 117.79 7.5 112.44 7.81 103"/>
      <polygon class="d" points="31.68 58.25 80.97 31.98 104.85 13.71 122.83 .25 147.01 .25 153.83 13.07 134.92 37.74 106.4 72.35 82.52 109.53 57.41 122.66 45.01 106.64 28.27 101.83 31.68 73.96 31.68 58.25"/>
    </g>
  </g>
</svg>