<?xml version="1.0" encoding="UTF-8"?>
<svg id="b" data-name="Layer 2" xmlns="http://www.w3.org/2000/svg" viewBox="0 0 138.32 170.31">
  <defs>
    <style>
      .d {
        fill: var(--main-color);
        stroke: var(--alt-color);
        stroke-miterlimit: 10;
        stroke-width: .5px;
      }
    </style>
  </defs>
  <g id="c" data-name="Layer 1">
    <g>
      <polygon class="d" points="123.35 3.83 112.34 68.65 124.09 69.95 135.73 3.83 123.35 3.83"/>
      <polygon class="d" points="83.73 110.25 95.22 89.28 122.97 76.05 124.09 69.95 95.22 82.21 85.97 96.01 83.73 110.25"/>
      <polygon class="d" points="83.17 85.56 87.69 79.77 114.02 68.65 124.09 69.95 95.22 82.21 88.43 92.34 83.17 85.56"/>
      <polygon class="d" points="105.11 13.63 97.1 77.7 94.88 79.03 103.63 12.14 105.11 13.63"/>
      <polygon class="d" points="98.93 12.14 90.73 77.84 94.88 79.03 103.63 12.14 98.93 12.14"/>
      <polygon class="d" points="116.83 13.33 107.75 73.97 105.11 74.58 114.6 12.14 116.83 13.33"/>
      <polygon class="d" points="108.82 11.1 100.96 74.58 105.11 74.58 114.6 12.14 108.82 11.1"/>
      <polygon class="d" points="124.1 14.37 115.2 71.88 113.27 71.88 123.35 11.1 124.1 14.37"/>
      <polygon class="d" points="118.68 14.07 109.41 71.88 113.27 71.88 123.35 11.1 118.68 14.07"/>
      <polygon class="d" points="122.46 76.57 134.77 8.23 138.04 9.7 125.73 75.4 122.46 76.57"/>
      <g>
        <polygon class="d" points="69.84 9.88 60.84 168.32 75.25 166.92 88.44 .43 69.84 9.88"/>
        <polygon class="d" points="98.93 3.13 79.31 166.92 75.25 166.92 88.44 .43 98.93 3.13"/>
      </g>
      <polygon class="d" points="17.67 11.19 21.96 163.05 10.51 163.05 8.37 8.23 17.67 11.19"/>
      <polygon class="d" points=".26 8.23 8.37 161.97 10.48 160.55 8.37 8.23 .26 8.23"/>
      <polygon class="d" points="29.59 160.11 63.89 107.09 75.25 110.25 42.85 168.32 29.59 160.11"/>
      <polygon class="d" points="75.25 124.13 75.25 110.25 42.85 168.32 47.06 170 75.25 124.13"/>
      <polygon class="d" points="59.05 11.99 54.42 137.7 49.58 142.23 54.31 9.88 59.05 11.99"/>
      <polygon class="d" points="46.63 9.88 44.11 142.23 49.58 142.23 54.31 9.88 46.63 9.88"/>
    </g>
  </g>
</svg>