<?xml version="1.0" encoding="UTF-8"?>
<svg id="b" data-name="Layer 2" xmlns="http://www.w3.org/2000/svg" viewBox="0 0 189.12 85.77">
  <defs>
    <style>
      .d {
        fill: var(--main-color);
        stroke: var(--alt-color);
        stroke-miterlimit: 10;
        stroke-width: .5px;
      }
    </style>
  </defs>
  <g id="c" data-name="Layer 1">
    <g>
      <polygon class="d" points="28.57 18.76 10.92 7.95 3.22 4.06 .71 5.01 2.79 10.2 8.58 16.34 18.45 21.79 24.5 22.83 30.99 23.95 28.57 18.76"/>
      <polygon class="d" points="30.99 36.64 119.53 74.7 135.16 46.36 47.23 14 30.99 36.64"/>
      <polygon class="d" points="45.21 53.96 30.99 36.64 119.53 74.7 120.9 84.48 45.21 53.96"/>
      <polygon class="d" points="135.16 55.8 120.9 84.48 119.53 74.7 135.16 46.36 135.16 55.8"/>
      <polygon class="d" points="106.02 49.84 113.89 55.08 132.52 66.01 142.13 77.65 159.17 85.52 177.81 85.52 186.4 80.71 188.87 68.48 188.87 58.43 186.11 48.83 165.87 40.67 148.98 42.92 131.07 45.82 120.44 44.89 111.85 41.87 106.02 49.84"/>
      <polygon class="d" points="17.43 15.83 12.86 11.48 7.83 11.48 10.34 15.83 14.46 16.97 17.43 15.83"/>
      <polygon class="d" points="38.51 15.13 33.67 13.14 30.99 13.66 19.4 6.65 7.46 .25 4.26 .25 .71 5.01 3.22 4.06 10.92 7.95 28.57 18.76 30.99 23.95 34.62 25.81 36.18 25.81 34.97 18.29 38.51 15.13"/>
      <polygon class="d" points="49.22 18.72 38.51 15.13 34.38 15.13 32.79 19.75 33.82 23.95 36.18 25.81 45.21 29.55 45.3 23.48 49.22 18.72"/>
      <polygon class="d" points="56.04 16.2 53.61 15.82 49.22 18.72 45.3 23.48 45.21 29.55 46.61 34.78 50.06 36.64 49.69 27.03 56.04 16.2"/>
      <polygon class="d" points="95.62 30.02 55.42 17.26 56.04 16.2 96.93 29.18 95.62 30.02"/>
      <polygon class="d" points="89.83 41.87 95.62 30.02 55.42 17.26 49.69 27.03 89.83 41.87"/>
      <polygon class="d" points="89.18 51.86 89.83 41.87 49.69 27.03 50.06 36.64 89.18 51.86"/>
      <polygon class="d" points="183.92 50.28 178.1 45.91 163.83 41.36 148.98 42.92 131.07 45.82 120.44 44.89 114.9 43.73 114.9 51.01 111.12 53.54 102.38 49.99 91.87 47.79 92.33 42.54 95.45 36.94 98.88 34.39 118.25 41.36 127.14 42.92 141.14 42.92 155.53 38.49 167.03 38.63 181.48 43.44 186.11 48.83 187.24 52.75 183.92 50.28"/>
      <polygon class="d" points="164.41 72.7 150 69.21 150 60.33 156.4 56.54 167.76 56.54 170.82 64.62 166.89 71.1 164.41 72.7"/>
      <polygon class="d" points="160.41 66.44 166.45 66.44 170.19 65.65 166.89 71.1 164.41 72.7 150 69.21 150 62.41 152.18 66.52 160.41 66.44"/>
      <polygon class="d" points="89.14 52.98 93.62 54.66 94.09 42.37 99.22 32.28 102.58 30.88 94.93 28.18 89.14 39.94 88.49 45.26 88.16 52.42 89.14 52.98"/>
      <polygon class="d" points="97.48 53.73 95.82 55.59 93.77 55.17 94.09 42.37 99.22 32.28 102.58 30.88 103.36 35.46 99.93 38.01 96.82 43.61 96.35 48.86 97.48 53.73"/>
    </g>
  </g>
</svg>