<?xml version="1.0" encoding="UTF-8"?>
<svg id="b" data-name="Layer 2" xmlns="http://www.w3.org/2000/svg" viewBox="0 0 102.66 127.11">
  <defs>
    <style>
      .d {
        fill: var(--main-color);
      }

      .d, .e {
        stroke: var(--alt-color);
        stroke-miterlimit: 10;
        stroke-width: .5px;
      }

      .e {
        fill: none;
      }
    </style>
  </defs>
  <g id="c" data-name="Layer 1">
    <g>
      <line class="d" x1="66.61" y1="95.31" x2="61.27" y2="104.23"/>
      <polygon class="e" points=".25 40.63 2.35 37.79 13.58 14 47.54 3.46 82.06 16.61 94.84 42.69 98.98 48.15 101.94 49.47 96.57 41.72 83.52 14.51 47.64 .27 13.49 10.95 .25 37.15 .25 40.63"/>
      <polyline class="e" points="40.42 89.17 40.29 83.94 40.17 73.53"/>
      <polyline class="e" points="23.35 80.33 25.04 86.48 26.9 90.89"/>
      <polyline class="e" points="52.79 116.43 53.93 105.67 49.58 98.45 39.85 94.67 27.59 97.19 24.27 102.8 21.96 112.4"/>
      <polygon class="e" points="9.61 121.93 22.21 114.94 36.3 113.68 53.02 118.15 59.32 123.08 25.76 126.85 12.36 125.59 9.61 121.93"/>
      <polyline class="e" points="9.61 121.93 17.51 113.11 36.18 110.13 52.9 115.86 59.32 123.08"/>
      <polyline class="e" points="58.14 84.59 55.57 88.67 54.28 95.13"/>
      <polyline class="e" points="65.07 96.55 61.33 101.41 59.09 103.38 54.28 95.13 40.42 89.17 26.9 90.89 21.29 99.6 19.16 95.13 16.43 92.25 23.18 79.92 39.53 73.69 58.62 83.4 65.72 95.83"/>
      <polygon class="d" points="56.21 107.39 61.2 105.75 62.13 103.8 62.84 100.84 61.59 100.66 59.03 102.61 56.21 107.39"/>
      <polygon class="d" points="26.13 73.84 35.54 71.58 38.01 71.58 38.37 74.62 34.98 76.49 26.13 79.32 22.82 78.29 23.95 75.45 26.13 73.84"/>
      <polygon class="d" points="45.22 71.94 57.58 76.49 55.27 82.15 43.45 77.23 45.22 71.94"/>
      <polygon class="e" points="62.6 80.93 67.69 89.24 64.29 93.33 59.1 84.24 62.6 80.93"/>
      <polygon class="d" points="14.63 86.44 19.31 78.71 22.28 82.64 17.91 90.72 14.63 86.44"/>
      <polygon class="e" points="25.47 22.64 25.47 53.04 25.47 72.98 21.23 75.45 21.96 48.56 21.23 23.97 25.47 22.64"/>
      <polygon class="e" points="46.22 15.74 39.05 71.94 45.22 71.94 48.12 42.73 50.28 15.07 47.23 15.21 46.22 15.74"/>
      <polygon class="e" points="73.36 23.99 57.58 78.22 61.56 79.32 76.54 25.2 73.36 23.99"/>
      <polygon class="d" points="83.68 41.22 65.25 90.23 68.27 93.33 85.49 45.36 83.68 41.22"/>
      <polygon class="d" points="13.94 40.85 16.43 87.85 15.18 87.85 12.48 40.85 13.94 40.85"/>
      <g>
        <polyline class="e" points="27.73 42.4 31.24 38.3 39.64 28.49 34.31 40.48 34.77 43.31"/>
        <line class="e" x1="31.24" y1="38.3" x2="34.31" y2="40.48"/>
        <polyline class="e" points="36.81 46.97 34.69 50.33 30.78 45.93 31.24 55.6 37.84 51.42 33.68 63.1 32.77 61.31 29.63 63.1"/>
        <line class="e" x1="35.63" y1="66.31" x2="35.23" y2="63.1"/>
        <line class="e" x1="36.75" y1="61.96" x2="37.84" y2="64.41"/>
        <line class="e" x1="34.31" y1="31.32" x2="32.77" y2="28.06"/>
        <line class="e" x1="35.63" y1="29.91" x2="34.31" y2="25.67"/>
      </g>
      <g>
        <polyline class="e" points="60.29 51.07 56.78 50.11 51.86 54.48 50.27 59.44 52.66 60.37 59.25 58.01"/>
        <polyline class="e" points="59.06 59.21 60.57 54.91 54.2 55.93"/>
        <polyline class="e" points="53.56 47.76 55.91 46.41 61.97 45.56"/>
        <polyline class="e" points="55.06 40.68 60.72 38.83 63.3 39.22"/>
        <polyline class="e" points="56.03 47.8 57.73 43.38 60.72 38.83"/>
        <polyline class="e" points="57.02 27.62 60.85 33.74 61.74 38.27"/>
        <polyline class="e" points="57.23 31.35 59.08 27.44 64.35 25.64 67.39 26.59 68.04 29.27 63.11 32.24 60.85 33.74"/>
      </g>
      <polygon class="d" points="11.12 42.69 20.61 22.91 48.54 14 77.31 24.46 86.8 46.69 86.14 47.99 85.25 47.18 76.12 25.83 48.46 15.33 21.96 24.92 11.94 44.56 11.12 42.69"/>
      <polygon class="e" points="10.29 41.72 7.55 39.54 17.69 17.43 48.55 6.56 80.14 18.98 91.37 43.32 88.36 45.36 77.77 22.54 48.46 11.95 19.97 21.36 10.29 41.72"/>
      <polygon class="d" points="22.03 82.96 18.45 81.77 19.37 75.82 26.7 72.98 26.7 78.75 24 81.13 22.03 82.96"/>
      <polygon class="d" points="39.57 76.93 35.11 78.71 33.99 75.25 33.99 71.58 39.57 70.2 46.59 71.98 45.01 75.94 44.62 78.71 39.57 76.93"/>
      <polygon class="d" points="52.86 81.39 54.86 74.92 61.23 77.34 63.42 81.85 62.28 85.39 59.52 86.33 52.86 81.39"/>
      <polygon class="d" points="64.38 90.72 67.12 85.04 69.39 90.34 67.97 96.39 64.38 97.24 64.38 90.72"/>
      <polygon class="d" points="17.03 95.95 13.44 95.95 12.06 90.9 14.54 82.53 18.3 88.55 17.03 95.95"/>
      <line class="d" x1="21.29" y1="99.6" x2="24.27" y2="102.8"/>
      <line class="d" x1="53.93" y1="105.67" x2="56.21" y2="107.39"/>
      <line class="d" x1="11.12" y1="42.69" x2="10.29" y2="41.72"/>
      <line class="d" x1="7.55" y1="39.54" x2=".25" y2="40.63"/>
      <line class="d" x1="86.8" y1="46.69" x2="88.36" y2="45.36"/>
      <line class="d" x1="91.37" y1="43.32" x2="94.84" y2="42.69"/>
    </g>
  </g>
</svg>