<?xml version="1.0" encoding="UTF-8"?>
<svg id="b" data-name="Layer 2" xmlns="http://www.w3.org/2000/svg" viewBox="0 0 216.51 108.69">
  <defs>
    <style>
      .d {
        fill: var(--main-color);
        stroke: var(--alt-color);
        stroke-miterlimit: 10;
        stroke-width: .5px;
      }
    </style>
  </defs>
  <g id="c" data-name="Layer 1">
    <g>
      <polygon class="d" points="205.2 25.99 204.09 .32 210.73 .32 212.67 27.8 205.2 25.99"/>
      <polygon class="d" points="121.06 21.79 123.57 17.28 126.83 18.53 141.98 15.03 146.36 18.41 149.37 15.03 149.37 18.41 160.68 17.19 165.15 21.79 171.16 24.79 171.16 29.59 178.68 29.51 178.68 34.56 181.43 36.32 181.43 40.83 185.69 47.84 183.94 57.6 185.69 62.37 182.94 75.14 179.43 75.14 179.43 80.91 175.17 87.67 168.41 85.41 134.77 49.59 121.06 33.06 121.06 21.79"/>
      <polygon class="d" points="149.87 49.59 153.38 27.8 160.68 27.8 171.66 38.7 175.17 46.09 149.87 49.59"/>
      <polygon class="d" points="153.38 59.49 177.43 52.57 177.43 59.49 173.17 74.89 168.41 74.89 153.38 59.49"/>
      <polygon class="d" points="139.1 21.54 127.83 26.8 139.6 41.62 146.11 37.07 142.73 23.04 139.1 21.54"/>
      <polygon class="d" points="111.42 70.1 121.06 88.97 124.01 87.67 117.12 63.73 111.42 70.1"/>
      <polygon class="d" points="216.26 9.95 117.12 9.95 117.12 18.53 123.57 17.28 130.87 15.03 141.98 15.03 147.39 12.72 149.37 18.41 160.68 14.24 163.4 18.41 169.24 16.59 172.01 16.31 175.17 18.53 181.14 14.24 186.94 15.03 195.24 15.03 201.6 16.59 208.79 14.24 216.26 15.03 216.26 9.95"/>
      <polygon class="d" points="68.07 31.13 59.77 31.13 62.54 1.54 70.56 1.54 68.07 31.13"/>
      <polygon class="d" points="117.12 9.95 .25 11.47 .25 17.42 117.12 18.53 117.12 9.95"/>
      <polygon class="d" points="135.62 57.12 129.21 .32 160.68 2.65 151.06 58.86 135.62 57.12"/>
      <polygon class="d" points="140.96 49.24 133.29 6.44 156.01 8.19 144.65 52.57 140.96 49.24"/>
      <polygon class="d" points="118.81 24.79 151.06 58.86 167.91 78.65 175.17 80.91 172.17 90.67 167.66 94.18 162.65 92.93 162.15 82.66 116.56 38.82 108.79 29.51 118.81 24.79"/>
      <polygon class="d" points="111.04 34.56 87 9.26 91.26 6.44 121.06 26.05 118.81 34.56 111.04 34.56"/>
      <polygon class="d" points="83.24 9.01 96.52 41.58 105.28 44.33 93.8 14.27 88.75 5.26 83.24 9.01"/>
      <polygon class="d" points="90 13.77 83.24 15.03 80.23 6.44 87.75 .32 93.8 5.26 98.52 10.02 90 13.77"/>
      <polygon class="d" points="101.28 38.82 96.52 41.58 98.52 49.59 107.54 65.6 118.81 59.86 112.67 49.59 105.28 38.82 101.28 38.82"/>
      <polygon class="d" points="153.63 67.62 144.94 73.39 131.34 70.5 127.83 57.6 133.29 43.58 148.87 43.58 157.64 46.84 157.64 62.37 153.63 67.62"/>
      <polygon class="d" points="143.36 65.6 133.29 58.86 138.32 51.1 149.87 49.59 152.38 62.12 143.36 65.6"/>
      <polygon class="d" points="122.32 80.91 113.3 82.66 104.53 78.4 98.52 58.86 120.06 52.57 126.83 71.89 126.83 77.4 122.32 80.91"/>
      <polygon class="d" points="116.46 90.7 122.02 94.09 127.83 88.56 125.79 84.98 117.14 83.88 116.46 90.7"/>
      <polygon class="d" points="122.47 106.79 112.67 98.86 113.98 94.18 120.4 87.67 133.29 92.36 133.29 101.08 124.93 108.38 122.47 106.79"/>
    </g>
  </g>
</svg>