<?xml version="1.0" encoding="UTF-8"?>
<svg id="b" data-name="Layer 2" xmlns="http://www.w3.org/2000/svg" viewBox="0 0 35.63 242.35">
  <defs>
    <style>
      .d {
        fill: var(--main-color);
      }

      .d, .e {
        stroke: var(--alt-color);
        stroke-miterlimit: 10;
        stroke-width: .5px;
      }

      .e {
        fill: none;
      }
    </style>
  </defs>
  <g id="c" data-name="Layer 1">
    <g>
      <polygon class="d" points="6.11 25.16 4.48 19.87 4.38 15.9 7.58 12.49 16.33 10.56 24.68 12.79 27.52 16.71 26.91 21.54 26.35 27.7 26.66 36.75 30.79 138.92 35.37 231.96 2.56 242.01 4.83 125.76 6.16 43.83 6.13 32.91 6.11 25.16"/>
      <line class="e" x1="25.32" y1="13.75" x2="25.28" y2="0"/>
      <polyline class="e" points="8.22 6.78 11.64 5.6 14.21 5.66 12.12 9.42 7.95 9.81 8.13 11.17 7.28 12.68"/>
      <polygon class="d" points="6.64 13.54 4.71 11.64 4.59 11.52 4.62 8.15 1.53 8.38 .35 5.61 5.54 4.66 6.21 .56 7.21 .62 6.35 4.57 9.12 .71 10.21 2 8.17 5.95 8.02 7.94 5.34 8.15 5.57 11 8.11 13.68 7.53 15.44 6.64 13.54"/>
      <polyline class="e" points="3.05 25.04 3.05 21.65 6.96 17.88 14.2 15.44 21.39 16.37 26.37 19.25 28.92 21.45 29.31 25.58"/>
      <polyline class="e" points="6.13 32.16 3.05 30.13 3.05 25.04 10.63 20.1 14.15 19.62 20.56 20.06 25.3 21.33 29.31 25.58 29.21 30.37 26.52 32.57"/>
    </g>
  </g>
</svg>