<?xml version="1.0" encoding="UTF-8"?>
<svg id="b" data-name="Layer 2" xmlns="http://www.w3.org/2000/svg" viewBox="0 0 135.08 91.57">
  <defs>
    <style>
      .d {
        fill: var(--main-color);
        stroke: var(--alt-color);
        stroke-miterlimit: 10;
        stroke-width: .5px;
      }
    </style>
  </defs>
  <g id="c" data-name="Layer 1">
    <g>
      <polygon class="d" points="20.78 39.34 7.82 38.01 13.37 22.45 24.71 23.61 20.78 39.34"/>
      <polygon class="d" points="39.98 38.01 51.08 38.01 54.09 22.45 41.6 24.07 39.98 38.01"/>
      <polygon class="d" points="73.06 39.34 85.32 39.34 87.63 24.07 75.83 24.07 73.06 39.34"/>
      <polygon class="d" points="103.13 39.34 114.23 39.34 114.23 25.92 104.06 25.92 103.13 39.34"/>
      <polygon class="d" points="16.27 77.44 1.46 77.44 6.09 69.35 6.09 61.71 19.51 61.71 16.27 69.58 16.27 77.44"/>
      <polygon class="d" points="36.16 78.83 48.42 78.83 48.42 61.71 37.55 63.8 36.16 78.83"/>
      <polygon class="d" points="70.4 78.83 84.51 78.83 85.43 64.95 74.56 64.95 70.4 78.83"/>
      <polygon class="d" points="102.78 79.99 114.12 79.99 114.12 64.95 105.56 63.8 102.78 79.99"/>
      <polygon class="d" points="3.66 44.19 .88 50.44 24.71 50.44 27.02 44.19 3.66 44.19"/>
      <polygon class="d" points="33.85 44.19 56.63 44.19 56.63 50.44 31.42 50.44 33.85 44.19"/>
      <polygon class="d" points="66.35 44.19 89.94 44.19 89.02 50.44 66.35 51.13 66.35 44.19"/>
      <polygon class="d" points="96.19 45.58 120.02 45.58 120.02 52.06 96.19 51.13 96.19 45.58"/>
      <polygon class="d" points="100.24 85.54 115.27 85.54 114.12 91.32 98.39 91.32 100.24 85.54"/>
      <polygon class="d" points="68.32 85.54 82.89 85.54 82.89 91.32 66.23 91.32 68.32 85.54"/>
      <polygon class="d" points="31.77 85.54 48.42 85.54 46.11 91.32 30.61 91.32 31.77 85.54"/>
      <polygon class="d" points="1.46 85.54 17.89 85.54 15.34 91.32 .3 91.32 1.46 85.54"/>
      <line class="d" x1="6.09" y1="69.35" x2="16.27" y2="69.58"/>
      <line class="d" x1="36.95" y1="70.27" x2="48.42" y2="70.27"/>
      <line class="d" x1="72.48" y1="71.89" x2="84.97" y2="71.89"/>
      <line class="d" x1="104" y1="72.87" x2="114.12" y2="71.89"/>
      <line class="d" x1="114.23" y1="32.63" x2="103.59" y2="32.63"/>
      <line class="d" x1="86.6" y1="30.89" x2="74.28" y2="32.63"/>
      <line class="d" x1="40.7" y1="31.76" x2="52.29" y2="31.76"/>
      <line class="d" x1="22.17" y1="32.63" x2="10.6" y2="30.23"/>
      <polygon class="d" points="6.75 16.79 10.6 10.15 10.6 .25 134.64 1.65 129.52 10.15 131.85 18.42 6.75 16.79"/>
      <polygon class="d" points="6.75 11.43 134.64 12.37 133.01 7.94 6.75 7.94 6.75 11.43"/>
    </g>
  </g>
</svg>