<?xml version="1.0" encoding="UTF-8"?>
<svg id="b" data-name="Layer 2" xmlns="http://www.w3.org/2000/svg" viewBox="0 0 217.22 163.85">
  <defs>
    <style>
      .d {
        fill: var(--main-color);
        stroke: var(--alt-color);
        stroke-miterlimit: 10;
        stroke-width: .5px;
      }
    </style>
  </defs>
  <g id="c" data-name="Layer 1">
    <g>
      <polygon class="d" points="182.58 123.89 173.4 130.74 170.05 126.66 180.25 118.06 186.51 100.29 190.45 90.67 187.82 78.58 180.1 68.67 197.29 64.15 206.04 72.89 216.38 73.48 216.96 87.03 205.75 93.73 191.32 105.38 182.58 123.89"/>
      <polygon class="d" points="111.34 12.28 75.36 23.5 42.28 29.77 33.25 34.43 15.11 41.06 11.32 66.41 11.91 78.5 25.6 63.06 38.13 73.4 46.44 85.79 53.58 93.07 59.4 99.63 67.13 96.28 65.96 90.89 76.16 91.47 86.36 97.01 86.21 104.29 91.75 110.7 99.47 102.98 106.03 95.99 100.34 88.7 85.63 87.54 68.87 80.4 62.61 83.31 52.26 73.26 51.39 63.2 45.85 56.79 48.18 52.57 59.55 50.24 59.99 43.83 46.73 46.89 36.24 48.05 35.51 42.08 49.64 39.31 66.98 39.75 77.76 37.27 82.13 34.21 96.27 29.99 107.05 25.76 117.54 15.42 111.34 12.28"/>
      <polygon class="d" points="5.57 20.08 19.99 20.52 45.2 36.69 57.58 51.26 66.76 62.48 84.39 64.81 93.86 63.5 88.91 54.61 71.86 51.55 61.81 32.46 54.23 11.92 37.18 12.65 20.43 9.59 14.02 .26 .32 1.57 5.57 20.08"/>
      <path class="d" d="M82.28,136.35l-.44-9.76-1.02-15.15s0-8.45-.44-10.64-.73-18.36-.73-18.36l3.64-8.89,4.23-26.95-1.6-11.8-4.66-10.78L86.94.85l12.82-.58,4.81,9.47-5.97,15.59-.15,14.13,1.02,12.82-3.06,23.89-6.12,14.13.44,23.31,2.33,15.88,1.17,11.95-11.95-5.1Z"/>
      <polygon class="d" points="74.12 155.87 73.24 148.44 73.83 142.9 70.18 138.82 60.42 138.82 55.32 141.45 55.18 150.04 51.68 148.73 51.97 141.88 47.31 146.69 42.36 144.8 48.48 137.37 45.42 131.54 35.95 145.38 30.7 140.57 41.19 128.5 43.23 126.15 41.77 120.32 35.8 128.48 36.67 119.88 42.21 115.22 44.4 111.43 39.01 110.41 37.99 105.02 44.69 100.8 52.41 102.11 56.2 110.27 55.47 119.59 55.03 128.19 58.67 131.83 65.81 134.01 73.24 135.33 77.47 136.49 81.11 141.45 81.11 148.73 82.72 157.76 74.12 155.87"/>
      <path class="d" d="M18.32,139.88l10.64-6.56,4.23-6.56,3.64-9.91,6.27-14.57,10.05-1.46,4.66,1.02,16.9.29,5.68,6.85,11.8-.73,10.93-6.27,11.8-5.54s3.44-3.54,1.75-9.76-11.66-5.1-11.66-5.1l-22,3.5-16.76,1.02-12.24,1.46-11.66,4.66-12.82,9.18-6.7,22.87-9.76,2.04,5.25,13.55Z"/>
      <polygon class="d" points="113.75 147.96 102.82 116.35 104.57 101.48 107.78 90.41 108.21 79.05 105.44 59.67 85.77 53.11 78.34 52.97 66.4 45.68 65.81 38.11 83.73 45.68 97.43 49.76 106.9 50.05 109.09 28.34 116.81 14.65 130.94 16.54 127.74 37.09 121.33 51.07 137.21 56.46 143.33 59.23 135.02 70.3 124.09 63.75 125.55 73.07 125.55 81.52 119.58 107.6 124.97 128.29 133.56 134.7 137.79 148.4 113.75 147.96"/>
      <polygon class="d" points="165.44 163.59 158.89 150.77 145.34 129.93 141.55 116.68 135.58 110.99 126.25 105.89 133.24 88.56 139.65 83.02 132.22 63.64 132.81 50.67 130.91 38.44 143.73 38 148.25 48.49 150.87 59.71 163.99 64.81 170.98 68.3 165.44 75.88 171.71 83.75 178.12 93.66 167.63 93.8 151.89 83.89 148.4 101.38 159.03 116.82 183.22 137.37 194.29 148 198.08 161.99 165.44 163.59"/>
      <polygon class="d" points="162.97 97.59 157.14 82.3 146.07 83.75 142.71 80.55 152.62 76.32 157.87 74.28 156.12 67.73 144.9 58.98 134.56 54.47 52.82 22.41 66.95 10.47 88.08 23.58 138.78 42.52 163.99 51.41 172.87 42.08 179.72 28.82 183.51 19.5 187.44 19.5 192.25 19.35 176.08 45.58 175.93 54.03 180.89 51.26 183.95 40.77 187.3 42.08 181.03 56.51 184.24 59.27 184.39 58.88 184.39 58.88 190.65 43.1 193.71 45.43 188.9 60.88 193.56 61.61 199.68 68.75 197.06 79.24 183.36 72.39 179.72 67.58 178.85 79.67 168.5 81.28 160.2 79.38 162.97 97.59"/>
    </g>
  </g>
</svg>